PathFileType	4	(X/Y/Z)	C:/Users/beibeiliu/ov580/test_trc/User1\sequence.13_training_dense_right.trc
DataRate	CameraRate	NumFrames	NumMarkers	Units	OrigDataRate	OrigDataStartFrame	OrigNumFrames
120	120	18	19	mm	120	40	316
Frame#	Time	ThumbCMC			ThumbMCP			ThumbIP			ThumbTip			IndexMCP			IndexPIP			IndexTip			MiddleMCP			MiddlePIP			MiddleTip			RingMCP			RingPIP			RingTip			PinkyMCP			PinkyPIP			PinkyTip			BackHand1			BackHand2			BackHand3	
		X0	Y0	Z0	X1	Y1	Z1	X2	Y2	Z2	X3	Y3	Z3	X4	Y4	Z4	X5	Y5	Z5	X6	Y6	Z6	X7	Y7	Z7	X8	Y8	Z8	X9	Y9	Z9	X10	Y10	Z10	X11	Y11	Z11	X12	Y12	Z12	X13	Y13	Z13	X14	Y14	Z14	X15	Y15	Z15	X16	Y16	Z16	X17	Y17	Z17	X18	Y18	Z18	
39	0.325	109.621	36.8863	38.1639	87.3066	26.7827	6.40027	77.9996	21.6596	-18.6438	67.5418	10.8635	-37.1615	122.4	49.0222	-42.2791	101.541	34.7821	-64.8801	80.6443	8.32674	-56.4243	155.029	40.7145	-55.0141	144.035	33.9646	-86.638	120.902	16.653	-106.466	174.874	18.3779	-48.5478	172.766	20.6455	-77.7113	158.941	13.4569	-103.425	176.683	-9.54912	-31.5371	185.07	-16.7633	-52.3156	189.525	-17.0247	-77.7235	174.024	11.2725	9.4625	177.351	7.42207	42.6643	155.271	41.0987	26.745	
40	0.333333	114.829	40.92	35.2411	89.0793	31.6781	9.91949	75.7807	28.2973	-15.1628	67.6831	18.1305	-37.1805	126.826	49.0815	-44.3993	105.144	33.2308	-64.5678	79.1161	10.3117	-53.5869	160.249	31.1995	-53.8404	147.77	30.7909	-83.1732	121.311	16.674	-105.789	173.57	8.20004	-44.0565	172.892	11.7484	-76.7341	161.157	4.54624	-101.421	173.293	-21.3981	-29.6811	178.998	-27.3343	-51.7614	183.312	-28.7812	-75.8226	171.529	7.29116	9.14208	177.529	3.34423	41.9202	158.958	33.6282	26.5976	
41	0.341667	120.477	41.8526	35.688	90.5511	38.8812	13.0042	79.4754	34.9244	-15.3093	66.1341	25.1022	-37.907	130.785	48.3722	-45.6164	105.867	35.2391	-64.5563	79.9171	20.2873	-54.2581	160.673	27.7006	-56.8071	148.681	22.737	-85.7202	120.09	12.4741	-105.943	172.441	1.61723	-46.9297	171.95	4.42714	-74.5247	156.081	-2.99507	-103.253	165.475	-27.9844	-26.8001	169.458	-32.1461	-53.6883	173.63	-37.4122	-73.9069	171.592	-0.182073	11.3987	173.249	-3.44662	39.3605	160.834	32.8569	27.349	
42	0.35	126.823	42.711	33.9474	96.6042	43.3857	12.6494	81.5178	43.2662	-15.3947	67.0692	34.4593	-37.939	135.599	40.7519	-49.7354	111.2	34.3603	-64.6568	82.2419	25.3406	-51.447	161.809	16.7259	-57.3445	150.863	15.9953	-84.1182	121.635	12.8481	-106.083	166.359	-4.09501	-44.7899	166.786	-5.78857	-76.5905	153.271	-6.05245	-99.3726	155.972	-35.4761	-26.9355	158.822	-41.5232	-47.9463	161.328	-44.5948	-74.637	167.824	-7.35828	11.5214	170.826	-11.2576	39.5055	163.995	26.8818	23.0648	
43	0.358333	137.164	43.5823	34.5021	108.656	48.4642	11.8659	93.1865	50.4354	-12.4825	77.4254	45.5323	-31.8187	145.315	32.415	-46.574	113.156	38.3291	-65.0057	87.7732	37.1932	-47.1883	158.885	4.78199	-52.3612	148.971	9.64317	-85.1691	124.119	11.4822	-106.239	157.923	-18.5512	-43.3325	155.276	-18.3905	-77.8538	141.815	-20.6624	-99.6518	139.749	-43.8943	-27.9027	138.102	-46.5878	-48.5171	138.332	-52.562	-72.2278	160.856	-18.9975	12.0634	165.644	-22.5441	40.2857	167.588	10.8201	25.801	
44	0.366667	154.759	28.1759	31.3695	134.269	50.6717	13.8074	118.327	58.3559	-9.69808	98.9078	60.6081	-28.7374	151.726	22.0441	-51.0495	127.375	37.6058	-62.1894	101.996	44.9094	-36.6348	151.505	-12.9019	-55.5406	141.145	-9.08857	-85.5717	123.166	3.61913	-109.461	137.91	-34.0669	-46.8163	135.466	-33.7981	-76.9706	123.186	-30.7689	-98.7183	113.139	-42.3982	-25.8909	104.848	-49.6749	-45.9506	105.66	-53.5246	-68.2167	146.045	-36.7224	8.21825	148.286	-39.4823	44.3797	168.088	-9.74516	25.0076	
45	0.375	163.024	18.9794	33.8897	148.719	48.4928	14.0582	134.791	61.5949	-8.29965	112.891	67.3403	-26.2696	153.952	12.1981	-45.94	133.404	37.9283	-57.0148	114.475	50.1591	-27.7116	148.158	-18.375	-53.5309	142.453	-11.6798	-81.402	125.468	0.534818	-109.391	129.36	-35.1801	-40.7488	125.164	-37.0688	-73.9967	116.486	-33.2731	-97.7369	99.5283	-43.512	-23.8022	94.3314	-44.3501	-39.6886	86.5238	-56.3196	-61.5596	138.008	-38.8435	11.6403	139.368	-48.8848	45.4585	167.491	-19.5409	22.2772	
46	0.383333	168.334	16.0235	36.6961	155.624	43.9692	18.394	141.46	60.7774	-6.20241	122.719	66.2965	-18.3504	156.924	14.4792	-43.1539	133.846	37.1229	-52.5077	118.548	48.445	-19.6474	145.121	-20.0452	-51.3818	141.465	-11.5063	-81.4913	128.549	0.429899	-107.879	126.181	-35.3133	-39.6123	121.831	-36.3846	-71.9309	113.677	-31.9771	-96.4974	93.8669	-42.0825	-22.1272	84.3022	-44.4151	-40.6709	83.4256	-50.2138	-60.4828	129.731	-42.6293	9.17707	135.294	-51.1951	41.3625	162.663	-27.3494	23.8465	
47	0.391667	167.728	8.37547	42.0515	160.81	43.7001	22.0843	148.869	59.6119	0.742375	127.004	63.7728	-16.4002	159.153	13.8363	-39.2759	134.438	38.3939	-48.322	125.01	50.9862	-18.2693	142.809	-21.1206	-51.6134	141.175	-10.7008	-82.0883	133.616	2.5831	-108.926	123.159	-35.2715	-38.0946	117.453	-36.7149	-71.2191	112.873	-30.5668	-93.3347	93.5824	-38.0017	-20.294	87.4277	-39.0442	-38.5774	82.951	-48.2673	-58.1317	129.233	-45.2092	13.5447	135.571	-52.0018	46.2694	162.806	-30.1206	28.963	
48	0.4	170.269	7.3214	44.703	164.745	41.2336	27.3002	152.081	57.1693	2.32499	133.766	66.1687	-11.0438	157.934	14.3687	-41.3835	143.707	39.6269	-46.5695	126.661	48.4608	-16.2782	143.453	-21.0775	-49.8045	144.51	-10.9791	-77.0849	137.596	1.69023	-105.7	124.789	-34.0239	-38.5915	119.927	-34.9592	-65.3753	111.874	-29.6035	-95.832	93.0657	-35.5407	-17.3072	82.7029	-39.2048	-34.5849	82.2324	-45.3511	-56.0794	127.321	-44.5557	16.7226	131.103	-54.4786	44.688	161.929	-32.5998	29.6893	
49	0.408333	169.129	3.05227	45.1407	166.393	37.7287	24.9073	157.453	55.0747	7.6485	137.411	64.2689	-11.0083	160.471	10.6265	-35.7634	143.071	40.7547	-40.6538	131.303	47.6812	-8.69818	148.072	-20.3396	-43.6623	143.323	-12.5113	-77.9234	140.248	0.208023	-101.946	120.727	-34.8112	-38.4652	122.143	-33.2181	-64.7396	114.799	-29.2704	-93.4748	95.4819	-32.9553	-16.9679	82.6776	-35.6255	-34.0552	82.4076	-43.8567	-53.4634	126.342	-44.7256	15.1218	130.047	-52.0739	45.9763	160.56	-36.0338	31.4854	
50	0.416667	173.082	3.39613	46.3879	171.101	37.6483	30.3783	161.648	52.8482	10.0282	142.274	64.6706	-10.5352	165.61	11.238	-35.3963	149.666	40.6904	-40.262	136.188	48.7076	-9.40801	149.452	-20.4274	-47.426	149.45	-11.6791	-71.8423	140.456	-1.31749	-101.082	120.431	-34.2638	-37.0106	120.301	-32.871	-62.9772	114.131	-28.8136	-91.748	94.1719	-30.9533	-17.8443	87.7536	-32.792	-35.9356	77.9194	-42.0852	-52.475	128.211	-42.9482	13.5679	128.945	-53.8308	45.5552	157.862	-36.8627	33.8358	
51	0.425	174.235	1.25215	52.0853	172.739	33.2078	29.4253	163.923	49.5219	11.0305	146.805	62.3844	-8.74391	166.267	6.74571	-32.4197	152.673	36.1325	-39.6644	142.762	48.8663	-7.01005	149.1	-21.5726	-41.6632	151.091	-12.2595	-69.9167	149.459	1.74619	-101.08	119.728	-33.0799	-35.1298	123.523	-30.768	-66.1733	116.672	-28.027	-91.0653	94.2329	-29.4864	-19.0452	84.5815	-30.8019	-31.9198	79.7991	-42.0266	-55.9086	126.426	-42.9472	14.4408	122.723	-54.3322	47.583	159.446	-38.3443	34.1916	
52	0.433333	175.508	-1.2342	51.4003	176.593	33.4796	32.9443	166.897	48.2879	10.5184	152.67	63.8414	-6.03135	168.016	9.09736	-33.6647	158.654	39.906	-37.0935	143.386	45.6826	-2.9774	150.095	-21.919	-44.8173	155.11	-11.0844	-69.4326	149.526	0.93985	-99.6704	124.556	-30.949	-37.7234	124.052	-29.9302	-64.0544	120.173	-26.7775	-91.1545	96.1074	-27.5186	-17.6684	87.9188	-29.1242	-34.9159	82.3863	-39.1757	-54.1721	123.796	-43.4079	15.8783	124.996	-51.7219	50.9084	156.134	-38.1581	34.4558	
53	0.441667	175.192	-2.4787	52.8129	180.136	32.5125	34.9642	172.359	48.5933	14.162	155.315	63.3702	-8.70728	171.824	5.35371	-30.5761	160.542	34.4929	-39.2612	146.67	44.9236	-8.24411	154.484	-21.5527	-41.8198	155.852	-12.2876	-73.4107	152.713	-0.584147	-98.628	123.936	-31.6982	-38.6218	124.541	-30.9541	-63.3213	127.099	-25.1473	-91.7099	95.0706	-26.6278	-16.4772	86.0555	-27.763	-32.3954	85.5483	-37.6771	-53.6155	124.186	-43.3315	18.2314	123.715	-51.8502	49.0229	159.596	-39.3729	34.7462	
54	0.45	172.278	-3.42313	52.09	178.148	28.7445	35.3642	174.637	47.1658	10.1069	161.834	62.0765	-5.80987	173.366	6.44269	-34.3515	164.507	38.0213	-37.8627	151.322	46.4714	-9.11742	155.446	-22.1092	-44.6243	159.056	-12.4549	-74.2646	160.09	-0.37879	-97.607	128.235	-29.8948	-39.3534	125.269	-31.0992	-64.4624	127.387	-26.1601	-89.2886	96.1143	-25.5436	-21.7313	88.6218	-26.5842	-38.3046	82.1072	-38.2434	-59.4387	126.595	-39.8489	14.5746	120.827	-50.4493	48.2028	159.258	-39.1841	31.8497	
55	0.458333	171.66	-2.88062	50.0181	178.513	28.4226	30.1399	177.084	46.902	11.1099	162.415	60.2922	-11.026	177.572	5.35806	-33.027	166.673	34.7607	-40.3661	154.144	46.4954	-12.3574	156.579	-22.4857	-44.5208	161.705	-13.4649	-72.2463	161.694	0.0601023	-102.33	126.268	-30.7345	-37.3816	133.109	-30.059	-68.0253	127.865	-27.957	-92.785	99.0137	-24.1436	-20.9192	88.4326	-26.2835	-39.5599	88.4743	-36.3611	-59.756	125.419	-40.6821	12.8273	120.364	-48.1759	47.5591	160.62	-37.2738	32.7155	
56	0.466667	172.847	-2.3274	49.4509	179.731	30.4069	30.3324	178.312	45.6842	7.47411	167.074	61.135	-12.4539	177.583	3.73204	-34.5499	172.692	32.148	-42.9197	157.769	47.5971	-12.5154	158.357	-23.2379	-43.9726	161.62	-15.2197	-70.8623	165.095	-1.45106	-99.9218	131.685	-29.5552	-37.5111	130.453	-31.6803	-67.515	129.686	-27.3526	-91.858	102.296	-23.8333	-23.5606	90.7637	-26.1462	-39.5124	85.3322	-35.1065	-60.3465	124.378	-39.2934	14.8128	121.238	-48.178	46.0339	157.413	-37.2197	32.0215	
